# xmcd
#
# Track frame offsets:
#	150
#	17043
#	34876
#	51044
#	69077
#	84712
#	101918
#	118174
#	134154
#	148717
#	164240
#	185933
#	203278
#	221317
#	237322
#
# Disc length: 3372 seconds
#
# Revision: 0
# Processed by: cddbd v1.5.2PL0 Copyright (c) Steve Scherf et al.
# Submitted via: dBpowerAMP V4.0
#
DISCID=e40d2a0f
DTITLE=Alexia - Da Grande
DYEAR=1900
DGENRE=Pop
TTITLE0=Da grande
TTITLE1=Dimmi come...
TTITLE2=Non lasciarmi mai
TTITLE3=Hasta la vista bay
TTITLE4=Per dire di no
TTITLE5=Egoista
TTITLE6=Un cuore non hai
TTITLE7=Come tu mi vuoi
TTITLE8=Una donna sola
TTITLE9=Quello che sento
TTITLE10=Funky al cuore
TTITLE11=Mai dire mai
TTITLE12=Don't you know
TTITLE13=You need love
TTITLE14=Money Honey
EXTD=
EXTT0=
EXTT1=
EXTT2=
EXTT3=
EXTT4=
EXTT5=
EXTT6=
EXTT7=
EXTT8=
EXTT9=
EXTT10=
EXTT11=
EXTT12=
EXTT13=
EXTT14=
PLAYORDER=
